<svg xmlns="http://www.w3.org/2000/svg" xmlns:xlink="http://www.w3.org/1999/xlink" viewBox="2066 375 250 146.6">
  <defs>
    <style>
      .cls-1 {
        fill: #a7a7a7;
      }

      .cls-2 {
        fill: url(#linear-gradient);
      }
    </style>
    <linearGradient id="linear-gradient" x1="-0.038" y1="1.141" x2="1.599" y2="-0.8" gradientUnits="objectBoundingBox">
      <stop offset="0" stop-color="#79be75"/>
      <stop offset="1" stop-color="#27a1c3"/>
    </linearGradient>
  </defs>
  <g id="Group_806" data-name="Group 806" transform="translate(1442 122)">
    <g id="Group_805" data-name="Group 805" transform="translate(686 293.156)">
      <g id="Group_797" data-name="Group 797" transform="translate(69.216 16.546)">
        <g id="Group_796" data-name="Group 796">
          <path id="Path_463" data-name="Path 463" class="cls-1" d="M26.479,95.9a1.013,1.013,0,0,1-.827-.276,1.433,1.433,0,0,1-.552-1.1l.276-71.147a1.832,1.832,0,0,1,1.1-1.379L85.768,6a1.658,1.658,0,0,1,1.1.276,1.433,1.433,0,0,1,.552,1.1l-.276,71.147a1.832,1.832,0,0,1-1.1,1.379L26.755,95.9Zm1.655-71.422-.276,68.389L84.665,77.7,84.94,9.309Z" transform="translate(-25.1 -6)"/>
        </g>
      </g>
      <g id="Group_799" data-name="Group 799" transform="translate(11.582 15.88)">
        <g id="Group_798" data-name="Group 798">
          <path id="Path_464" data-name="Path 464" class="cls-1" d="M63.213,96.323h-.276L5.3,79.777A1.832,1.832,0,0,1,4.2,78.4L4.476,7.252a1.433,1.433,0,0,1,.552-1.1,1.213,1.213,0,0,1,1.379-.276L64.04,22.419a1.832,1.832,0,0,1,1.1,1.379l-.276,71.147a1.433,1.433,0,0,1-.552,1.1A1.658,1.658,0,0,1,63.213,96.323ZM7.233,77.3,62.11,93.014l.276-68.389L7.233,8.906Z" transform="translate(-4.2 -5.759)"/>
        </g>
      </g>
      <g id="Group_801" data-name="Group 801" transform="translate(11.858)">
        <g id="Group_800" data-name="Group 800">
          <path id="Path_465" data-name="Path 465" class="cls-1" d="M63.313,35.3h-.276L5.4,18.752a1.832,1.832,0,0,1-1.1-1.379,1.832,1.832,0,0,1,1.1-1.379L65.519,0h.827l56.807,16.546a1.832,1.832,0,0,1,1.1,1.379c0,.552-.552,1.379-1.1,1.379L63.865,35.3ZM10.918,17.373,63.313,32.54l54.325-14.615L65.795,2.758Z" transform="translate(-4.3)"/>
        </g>
      </g>
      <g id="Group_802" data-name="Group 802" transform="translate(0 15.886)">
        <path id="Path_466" data-name="Path 466" class="cls-1" d="M57.634,49.439h-.552L.827,28.481q-.414,0-.827-.827v-1.1L12.134,6.42a1.582,1.582,0,0,1,1.93-.552,1.828,1.828,0,0,1,.552,1.93L3.585,26.551,57.358,46.406,70.044,23.242a1.42,1.42,0,0,1,2.482,1.379L59.289,48.888A3.919,3.919,0,0,1,57.634,49.439Z" transform="translate(0 -5.761)"/>
      </g>
      <g id="Group_803" data-name="Group 803" transform="translate(70.487 16.546)">
        <path id="Path_467" data-name="Path 467" class="cls-1" d="M40.009,49.846c-.552,0-1.1-.276-1.1-.827L25.669,24.752a1.828,1.828,0,0,1,.552-1.93,1.828,1.828,0,0,1,1.93.552L40.836,46.537,94.609,26.682,83.579,7.93A1.454,1.454,0,0,1,84.131,6a1.31,1.31,0,0,1,1.379.827L97.367,26.958a.839.839,0,0,1,0,1.1,1.243,1.243,0,0,1-.827.827L40.56,49.846Z" transform="translate(-25.561 -6)"/>
      </g>
      <g id="Group_804" data-name="Group 804" transform="translate(71.974)">
        <path id="Path_468" data-name="Path 468" class="cls-1" d="M27.479,34.47A1.3,1.3,0,0,1,26.1,33.091V1.379a1.379,1.379,0,0,1,2.758,0V33.091A1.3,1.3,0,0,1,27.479,34.47Z" transform="translate(-26.1)"/>
      </g>
    </g>
    <path id="Path_469" data-name="Path 469" class="cls-2" d="M7.6,15.3A7.619,7.619,0,0,1,0,7.6a7.6,7.6,0,0,1,15.2,0A7.618,7.618,0,0,1,7.6,15.3ZM7.6,2a5.6,5.6,0,1,0,5.6,5.6A5.528,5.528,0,0,0,7.6,2Z" transform="translate(656 276)"/>
    <path id="Path_470" data-name="Path 470" class="cls-2" d="M5,10.066A5.012,5.012,0,0,1,0,5,5,5,0,0,1,10,5,5.012,5.012,0,0,1,5,10.066Zm0-8.75A3.684,3.684,0,1,0,8.684,5,3.637,3.637,0,0,0,5,1.316Z" transform="translate(834 345)"/>
    <path id="Path_471" data-name="Path 471" class="cls-2" d="M6,12.079A6.015,6.015,0,0,1,0,6,6,6,0,0,1,12,6,6.014,6.014,0,0,1,6,12.079Zm0-10.5A4.421,4.421,0,1,0,10.421,6,4.364,4.364,0,0,0,6,1.579Z" transform="translate(659 348)"/>
    <path id="Path_472" data-name="Path 472" class="cls-2" d="M6,12.079A6.015,6.015,0,0,1,0,6,6,6,0,0,1,12,6,6.014,6.014,0,0,1,6,12.079Zm0-10.5A4.421,4.421,0,1,0,10.421,6,4.364,4.364,0,0,0,6,1.579Z" transform="translate(818 253)"/>
    <path id="Path_473" data-name="Path 473" class="cls-2" d="M5,10.066A5.012,5.012,0,0,1,0,5,5,5,0,0,1,10,5,5.012,5.012,0,0,1,5,10.066Zm0-8.75A3.684,3.684,0,1,0,8.684,5,3.637,3.637,0,0,0,5,1.316Z" transform="translate(864 291)"/>
    <path id="Path_474" data-name="Path 474" class="cls-2" d="M5,10.066A5.012,5.012,0,0,1,0,5,5,5,0,0,1,10,5,5.012,5.012,0,0,1,5,10.066Zm0-8.75A3.684,3.684,0,1,0,8.684,5,3.637,3.637,0,0,0,5,1.316Z" transform="translate(624 314)"/>
  </g>
</svg>
