<svg xmlns="http://www.w3.org/2000/svg" viewBox="829 23 105.552 49.931">
  <defs>
    <style>
      .cls-1 {
        fill: #fff;
      }
    </style>
  </defs>
  <g id="Layer-1_2_" transform="translate(829 23)">
    <path id="Path_1" data-name="Path 1" class="cls-1" d="M3.628,215.571a7.944,7.944,0,0,0-2.9,5.282H7.664A2.852,2.852,0,0,1,9.318,219.3a7.479,7.479,0,0,1,2.591-.419,10.7,10.7,0,0,1,2.95.468,1.967,1.967,0,0,1,1.6,2.023q0,2.078-4.555,2.691c-.618.07-1.176.159-1.654.259a6.442,6.442,0,0,1-1.246.159,14.713,14.713,0,0,0-6.468,2.482Q0,228.831,0,233.181q0,4.664,2.8,6.677a10.846,10.846,0,0,0,6.518,2.023,42.028,42.028,0,0,0,4.3-.259,12.666,12.666,0,0,0,4.6-1.4,9.182,9.182,0,0,0,3.578-3.369,11.92,11.92,0,0,0,1.5-6.468v-9.428a6.654,6.654,0,0,0-3-5.8c-1.933-1.316-4.834-1.963-8.7-1.963C8.142,213.189,5.491,213.987,3.628,215.571Zm4.036,19.893a3.36,3.36,0,0,1-.937-2.482c0-2.671,2.173-3.279,3.418-3.628l2.382-.518a18.65,18.65,0,0,0,3.937-1.3l.11,2.541a6.187,6.187,0,0,1-1.654,4.555,6.147,6.147,0,0,1-4.555,1.654A3.944,3.944,0,0,1,7.664,235.464Z" transform="translate(0 -191.951)"/>
    <path id="Path_2" data-name="Path 2" class="cls-1" d="M457.1,219.4a3.364,3.364,0,0,0-2.541,1.036,3.462,3.462,0,0,0-.987,2.482V237a4.251,4.251,0,0,1-1.5,3.628,5.433,5.433,0,0,1-3.369,1.136,5.187,5.187,0,0,1-3.309-1.136A4.32,4.32,0,0,1,443.945,237V219.4h-2.91a4.338,4.338,0,0,0-4.335,4.335v11.82q0,7.146,3.678,9.428a16.7,16.7,0,0,0,8.132,2.482,16.085,16.085,0,0,0,8.392-2.282q3.827-2.272,3.827-9.627V219.4Z" transform="translate(-393.178 -197.534)"/>
    <path id="Path_3" data-name="Path 3" class="cls-1" d="M715.278,215.781q-3.677,2.377-3.677,9.428v16.155h7.245v-17.61a4.345,4.345,0,0,1,1.445-3.628,5.226,5.226,0,0,1,3.309-1.136,5.454,5.454,0,0,1,3.369,1.136,4.265,4.265,0,0,1,1.5,3.628v14.082A3.38,3.38,0,0,0,732,241.365h3.628V225.209q0-7.25-3.827-9.627a15.611,15.611,0,0,0-8.392-2.382A16.009,16.009,0,0,0,715.278,215.781Z" transform="translate(-640.681 -191.952)"/>
    <path id="Path_4" data-name="Path 4" class="cls-1" d="M986.4,219.4v27.547h2.89a4.36,4.36,0,0,0,4.355-4.355V222.918a3.539,3.539,0,0,0-3.518-3.518H986.4Z" transform="translate(-888.094 -197.534)"/>
    <g id="Group_1" data-name="Group 1" transform="translate(98.299 13.783)">
      <path id="Path_5" data-name="Path 5" class="cls-1" d="M985.2,138.3v5.691h7.245v-2.173a3.539,3.539,0,0,0-3.518-3.518Z" transform="translate(-985.2 -138.3)"/>
    </g>
    <path id="Path_6" data-name="Path 6" class="cls-1" d="M268.12,39.789a14.886,14.886,0,0,0-.458,2.153c-.06.369-.1.708-.13,1.017V43a13.963,13.963,0,0,0-.07,1.734V68.94a6.625,6.625,0,0,0,6.608-7.186L272.844,47.3c-.01-5.252,8.461-4.415,13.345-9.089,5.661-5.432,6.339-16.514,6.339-16.514C276.81,23.972,269.565,34.437,268.12,39.789Zm14.9-7.973S274.658,37.8,271.8,43.446A17.475,17.475,0,0,1,283.019,31.816Z" transform="translate(-240.802 -19.537)"/>
    <path id="Path_7" data-name="Path 7" class="cls-1" d="M222.389,20.062c.07-.349.159-.688.259-1.017a18.879,18.879,0,0,1,2.093-4.694l-.01.01a31.285,31.285,0,0,0-2.721-7.644s3.428,2.242,4.026,5.741A21.7,21.7,0,0,1,229.9,8.431,29.129,29.129,0,0,0,218.433,0,38.478,38.478,0,0,0,222.389,20.062Z" transform="translate(-196.557)"/>
  </g>
</svg>
