<svg xmlns="http://www.w3.org/2000/svg" xmlns:xlink="http://www.w3.org/1999/xlink" viewBox="624 368.228 250 174.472">
  <defs>
    <style>
      .cls-1 {
        fill: #a7a7a7;
      }

      .cls-2 {
        fill: #f2f2f2;
      }

      .cls-3 {
        fill: url(#linear-gradient);
      }
    </style>
    <linearGradient id="linear-gradient" x1="-0.038" y1="1.141" x2="1.599" y2="-0.8" gradientUnits="objectBoundingBox">
      <stop offset="0" stop-color="#79be75"/>
      <stop offset="1" stop-color="#27a1c3"/>
    </linearGradient>
  </defs>
  <g id="Group_794" data-name="Group 794" transform="translate(0 122)">
    <g id="Group_793" data-name="Group 793" transform="translate(701 246.228)">
      <g id="Group_791" data-name="Group 791" transform="translate(0)">
        <g id="Group_789" data-name="Group 789">
          <path id="Path_453" data-name="Path 453" class="cls-1" d="M52.727,0H44.154V3.429h8.574V0ZM35.58,0H27.007V3.429H35.58V0ZM18.433.429c-.857,0-1.715.429-2.572.429h0c-1.715.429-2.572.857-3,.857h0a.42.42,0,0,0-.429.429h0c-.429,0-.429.429-.857.429l1.715,2.572a18.94,18.94,0,0,1,6.859-2.572L18.433.429ZM3.858,9h0v.429h0a17.462,17.462,0,0,0-2.572,4.715h0c0,.429-.429,1.286-.429,1.715l3,.857a22.907,22.907,0,0,1,2.572-6L3.858,9Zm-.429,16.29H0v8.574H3.429V25.292Zm0,17.147H0v8.574H3.429V42.439Zm0,17.147H0V68.16H3.429V59.586Zm0,17.147H0v8.574H3.429V76.733Zm0,17.147H0v8.574H3.429V93.88Zm0,17.147H0v4.715H0v2.143H0v.429l3-.429c0-.857-.429-2.143-.429-3.429v-3.429ZM6,125.6l-2.572,1.715a.42.42,0,0,0,.429.429h0c.429.429.857,1.286,1.715,1.715h0c2.143,3,3,3.429,3.858,3.858l1.715-2.572A29.1,29.1,0,0,1,6,125.6Zm12,8.145-.857,3a2.577,2.577,0,0,1,1.715.429h4.287v-3.429H18Zm24.863,0H34.294v3.429h8.574v-3.429Zm17.147,0H51.441v3.429h8.574v-3.429Zm17.147,0H68.588v3.429h8.574v-3.429Zm14.575-3a21.718,21.718,0,0,1-6.43,3l.857,3c.429,0,.857-.429,1.286-.429h0a15.836,15.836,0,0,0,6-3h0l-1.715-2.572Zm7.716-12a18.94,18.94,0,0,1-2.572,6.859l2.572,1.715,1.286-2.572h0v-.429h0a.42.42,0,0,1,.429-.429h0a12.517,12.517,0,0,0,.857-3.858l-2.572-1.286Zm3.429-16.718H99.453V110.6h3.429v-8.574Zm0-17.147H99.453v8.574h3.429V84.878Zm0-17.147H99.453V76.3h3.429V67.731Zm0-17.147H99.453v8.574h3.429V50.584Zm-.429-16.718-.857.429H99.453V42.01h3.429V34.294h0l-.429-.429Zm-12-12.432-2.143,2.143,6,6,2.143-2.143-5.144-5.573h0a1.5,1.5,0,0,1-.857-.429ZM78.448,9,76.3,11.146l6,6L84.449,15l-6-6ZM69.874,0H61.3V3.429h7.288L70.3,5.144,72.446,3,69.874,0Z"/>
        </g>
        <g id="Group_790" data-name="Group 790" transform="translate(67.731)">
          <path id="Path_454" data-name="Path 454" class="cls-1" d="M50.952,38.581H49.237V35.152h1.715Zm-10.288,0H32.09V35.152h8.574Zm-17.147,0H15.8V34.294h3.429v.857h4.287Zm-4.287-12.86H15.8V17.147h3.429Zm0-17.147H15.8V0h3.429Z" transform="translate(-15.8)"/>
        </g>
      </g>
      <ellipse id="Ellipse_1" data-name="Ellipse 1" class="cls-2" cx="56.157" cy="4.715" rx="56.157" ry="4.715" transform="translate(0 165.041)"/>
      <g id="Group_792" data-name="Group 792" transform="translate(30.865 54.871)">
        <ellipse id="Ellipse_2" data-name="Ellipse 2" class="cls-1" cx="3.429" cy="5.144" rx="3.429" ry="5.144"/>
        <ellipse id="Ellipse_3" data-name="Ellipse 3" class="cls-1" cx="3.429" cy="5.144" rx="3.429" ry="5.144" transform="translate(34.294)"/>
      </g>
      <path id="Path_455" data-name="Path 455" class="cls-1" d="M42.787,25.83A27.049,27.049,0,0,0,25.64,19.4,27.049,27.049,0,0,0,8.493,25.83a1.608,1.608,0,0,0,0,2.572,1.575,1.575,0,0,0,1.286.429,1.575,1.575,0,0,0,1.286-.429,26.893,26.893,0,0,1,15-5.573c9,0,14.575,5.573,15,5.573a2.143,2.143,0,0,0,2.572,0C43.645,27.545,43.645,26.259,42.787,25.83Z" transform="translate(25.801 63.763)"/>
    </g>
    <path id="Path_457" data-name="Path 457" class="cls-3" d="M7.6,15.3A7.619,7.619,0,0,1,0,7.6a7.6,7.6,0,0,1,15.2,0A7.618,7.618,0,0,1,7.6,15.3ZM7.6,2a5.6,5.6,0,1,0,5.6,5.6A5.528,5.528,0,0,0,7.6,2Z" transform="translate(656 276)"/>
    <path id="Path_458" data-name="Path 458" class="cls-3" d="M5,10.066A5.012,5.012,0,0,1,0,5,5,5,0,0,1,10,5,5.012,5.012,0,0,1,5,10.066Zm0-8.75A3.684,3.684,0,1,0,8.684,5,3.637,3.637,0,0,0,5,1.316Z" transform="translate(834 345)"/>
    <path id="Path_459" data-name="Path 459" class="cls-3" d="M6,12.079A6.015,6.015,0,0,1,0,6,6,6,0,0,1,12,6,6.014,6.014,0,0,1,6,12.079Zm0-10.5A4.421,4.421,0,1,0,10.421,6,4.364,4.364,0,0,0,6,1.579Z" transform="translate(659 348)"/>
    <path id="Path_460" data-name="Path 460" class="cls-3" d="M6,12.079A6.015,6.015,0,0,1,0,6,6,6,0,0,1,12,6,6.014,6.014,0,0,1,6,12.079Zm0-10.5A4.421,4.421,0,1,0,10.421,6,4.364,4.364,0,0,0,6,1.579Z" transform="translate(818 253)"/>
    <path id="Path_461" data-name="Path 461" class="cls-3" d="M5,10.066A5.012,5.012,0,0,1,0,5,5,5,0,0,1,10,5,5.012,5.012,0,0,1,5,10.066Zm0-8.75A3.684,3.684,0,1,0,8.684,5,3.637,3.637,0,0,0,5,1.316Z" transform="translate(864 291)"/>
    <path id="Path_462" data-name="Path 462" class="cls-3" d="M5,10.066A5.012,5.012,0,0,1,0,5,5,5,0,0,1,10,5,5.012,5.012,0,0,1,5,10.066Zm0-8.75A3.684,3.684,0,1,0,8.684,5,3.637,3.637,0,0,0,5,1.316Z" transform="translate(624 314)"/>
  </g>
</svg>
