<svg xmlns="http://www.w3.org/2000/svg" viewBox="2760 145 72.518 34.304">
  <defs>
    <style>
      .cls-1 {
        fill: #fff;
      }
    </style>
  </defs>
  <g id="Layer-1_2_" transform="translate(2760 145)">
    <path id="Path_1" data-name="Path 1" class="cls-1" d="M2.492,214.829A5.458,5.458,0,0,0,.5,218.458H5.265A1.959,1.959,0,0,1,6.4,217.39a5.138,5.138,0,0,1,1.78-.288,7.349,7.349,0,0,1,2.027.322,1.351,1.351,0,0,1,1.1,1.39q0,1.428-3.129,1.849c-.425.048-.808.11-1.137.178a4.427,4.427,0,0,1-.856.11,10.108,10.108,0,0,0-4.444,1.7A4.952,4.952,0,0,0,0,226.928q0,3.2,1.924,4.588a7.451,7.451,0,0,0,4.478,1.39,28.872,28.872,0,0,0,2.951-.178,8.7,8.7,0,0,0,3.163-.959,6.308,6.308,0,0,0,2.458-2.314,8.189,8.189,0,0,0,1.034-4.444v-6.477a4.572,4.572,0,0,0-2.061-3.985A10.7,10.7,0,0,0,7.97,213.2,8.176,8.176,0,0,0,2.492,214.829ZM5.265,228.5a2.308,2.308,0,0,1-.644-1.7c0-1.835,1.493-2.253,2.349-2.492l1.636-.356a12.813,12.813,0,0,0,2.7-.89l.075,1.746a4.25,4.25,0,0,1-1.137,3.129,4.223,4.223,0,0,1-3.129,1.137A2.71,2.71,0,0,1,5.265,228.5Z" transform="translate(0 -198.601)"/>
    <path id="Path_2" data-name="Path 2" class="cls-1" d="M450.716,219.4a2.312,2.312,0,0,0-1.746.712,2.378,2.378,0,0,0-.678,1.7v9.675a2.92,2.92,0,0,1-1.034,2.492,3.732,3.732,0,0,1-2.314.781,3.564,3.564,0,0,1-2.273-.781,2.968,2.968,0,0,1-.993-2.492V219.4h-2a2.981,2.981,0,0,0-2.978,2.978V230.5q0,4.909,2.527,6.477a11.476,11.476,0,0,0,5.587,1.7,11.051,11.051,0,0,0,5.765-1.568q2.629-1.561,2.629-6.614V219.4Z" transform="translate(-406.799 -204.377)"/>
    <path id="Path_3" data-name="Path 3" class="cls-1" d="M714.127,214.973q-2.527,1.633-2.527,6.477v11.1h4.978v-12.1a2.985,2.985,0,0,1,.993-2.492,3.591,3.591,0,0,1,2.273-.781,3.747,3.747,0,0,1,2.314.781,2.93,2.93,0,0,1,1.034,2.492v9.675a2.322,2.322,0,0,0,2.424,2.424h2.492v-11.1q0-4.981-2.629-6.614a10.725,10.725,0,0,0-5.765-1.636A11,11,0,0,0,714.127,214.973Z" transform="translate(-662.876 -198.602)"/>
    <path id="Path_4" data-name="Path 4" class="cls-1" d="M986.4,219.4v18.925h1.986a3,3,0,0,0,2.992-2.992V221.817a2.431,2.431,0,0,0-2.417-2.417H986.4Z" transform="translate(-918.86 -204.377)"/>
    <g id="Group_1" data-name="Group 1" transform="translate(67.534 9.47)">
      <path id="Path_5" data-name="Path 5" class="cls-1" d="M985.2,138.3v3.91h4.978v-1.493a2.431,2.431,0,0,0-2.417-2.417Z" transform="translate(-985.2 -138.3)"/>
    </g>
    <path id="Path_6" data-name="Path 6" class="cls-1" d="M267.913,34.127a10.23,10.23,0,0,0-.315,1.479c-.041.253-.068.486-.089.7v.027a9.594,9.594,0,0,0-.048,1.191V54.155A4.552,4.552,0,0,0,272,49.218l-.842-9.928c-.007-3.608,5.813-3.033,9.168-6.245,3.889-3.732,4.355-11.346,4.355-11.346C273.883,23.261,268.905,30.451,267.913,34.127Zm10.236-5.478s-5.745,4.108-7.71,7.991A12.006,12.006,0,0,1,278.149,28.65Z" transform="translate(-249.145 -20.214)"/>
    <path id="Path_7" data-name="Path 7" class="cls-1" d="M221.114,13.783c.048-.24.11-.472.178-.7A12.97,12.97,0,0,1,222.73,9.86l-.007.007a21.494,21.494,0,0,0-1.869-5.252,6.785,6.785,0,0,1,2.766,3.944,14.908,14.908,0,0,1,2.657-2.766A20.012,20.012,0,0,0,218.4,0,26.436,26.436,0,0,0,221.114,13.783Z" transform="translate(-203.366)"/>
  </g>
</svg>
