<svg xmlns="http://www.w3.org/2000/svg" viewBox="26 215.227 23.948 23.948">
  <defs>
    <style>
      .cls-1 {
        fill: #fff;
      }
    </style>
  </defs>
  <g id="Group_80" data-name="Group 80" transform="translate(26 215.227)">
    <path id="Path_21" data-name="Path 21" class="cls-1" d="M15.245,26.49a2.245,2.245,0,1,1,2.245-2.245A2.205,2.205,0,0,1,15.245,26.49Zm0-2.994a.748.748,0,1,0,.748.748A.707.707,0,0,0,15.245,23.5Z" transform="translate(-3.271 -7.274)"/>
    <path id="Path_22" data-name="Path 22" class="cls-1" d="M11.974,23.948A11.974,11.974,0,1,1,23.948,11.974,12.009,12.009,0,0,1,11.974,23.948Zm0-22.451A10.477,10.477,0,1,0,22.451,11.974,10.508,10.508,0,0,0,11.974,1.5Z" transform="translate(0)"/>
    <path id="Path_23" data-name="Path 23" class="cls-1" d="M21.213,13.729a.707.707,0,0,1-.748-.748,7.484,7.484,0,0,0-14.968,0,.707.707,0,0,1-.748.748A.707.707,0,0,1,4,12.981a8.981,8.981,0,0,1,17.961,0A.707.707,0,0,1,21.213,13.729Z" transform="translate(-1.006 -1.006)"/>
    <path id="Path_24" data-name="Path 24" class="cls-1" d="M16.26,18.389h-.15c-.374-.061-.674-.429-.524-.735l2.245-7.845a.735.735,0,0,1,.9-.429.688.688,0,0,1,.6.735L17.084,17.96A1.49,1.49,0,0,1,16.26,18.389Z" transform="translate(-3.912 -2.352)"/>
  </g>
</svg>
