<svg xmlns="http://www.w3.org/2000/svg" viewBox="1411 317.053 18.565 19.27">
  <defs>
    <style>
      .cls-1 {
        fill: #fff;
        opacity: 0.6;
      }
    </style>
  </defs>
  <path id="Path_411" data-name="Path 411" class="cls-1" d="M18.343,2.409a1.052,1.052,0,0,0-.741-.278,1.317,1.317,0,0,0-.556.185,10.716,10.716,0,0,1-4.54,1.39A4.773,4.773,0,0,1,8.894,1.853C7.782.649,6.948,0,5.744,0,4.632,0,3.335.649,1.76,1.946l-.278-.926A.7.7,0,0,0,.741.463H.556A.925.925,0,0,0,.093.834,1.175,1.175,0,0,0,0,1.39L4.725,18.714a.807.807,0,0,0,.741.556h.185a.925.925,0,0,0,.463-.371,1.175,1.175,0,0,0,.093-.556L4.354,11.58a.708.708,0,0,0,.463-.185c1.39-1.39,2.409-2.038,3.335-2.038a2.886,2.886,0,0,1,1.668.649,3.685,3.685,0,0,0,2.038.834,1.175,1.175,0,0,0,.556-.093c1.668-.371,3.335-2.5,6.022-7.134A1.139,1.139,0,0,0,18.343,2.409ZM16.12,4.632C14.36,7.5,13.063,9.079,12.044,9.264h-.278c-.371,0-.649-.185-1.2-.556a4.386,4.386,0,0,0-2.5-.926c-1.112.093-2.5.834-4.076,2.409L2.131,3.52C3.8,2.131,4.817,1.482,5.651,1.482s1.39.556,2.131,1.3A6.051,6.051,0,0,0,12.414,5.1a10.905,10.905,0,0,0,3.52-.741l.463-.185Z" transform="translate(1411 317.053)"/>
</svg>
