<svg xmlns="http://www.w3.org/2000/svg" viewBox="1410.682 514.013 20.019 20.019">
  <defs>
    <style>
      .cls-1 {
        opacity: 0.6;
      }

      .cls-2 {
        fill: #fff;
      }
    </style>
  </defs>
  <g id="Group_112" data-name="Group 112" class="cls-1" transform="translate(1410.682 514.013)">
    <g id="Group_26" data-name="Group 26" transform="translate(2.502 16.266)">
      <path id="Path_38" data-name="Path 38" class="cls-2" d="M18.389,29.754H4.626a.626.626,0,0,1,0-1.251H18.389a1.843,1.843,0,0,0,1.877-1.877.626.626,0,1,1,1.251,0A3.1,3.1,0,0,1,18.389,29.754Z" transform="translate(-4 -26)"/>
    </g>
    <g id="Group_27" data-name="Group 27" transform="translate(5.005)">
      <path id="Path_39" data-name="Path 39" class="cls-2" d="M23.014,16.891H21.763V1.877a.591.591,0,0,0-.626-.626H9.877a.591.591,0,0,0-.626.626V16.891H8V1.877A1.843,1.843,0,0,1,9.877,0H21.138a1.843,1.843,0,0,1,1.877,1.877Z" transform="translate(-8)"/>
    </g>
    <g id="Group_28" data-name="Group 28" transform="translate(0 16.266)">
      <path id="Path_40" data-name="Path 40" class="cls-2" d="M3.128,29.754A3.1,3.1,0,0,1,0,26.626.591.591,0,0,1,.626,26a.591.591,0,0,1,.626.626A1.843,1.843,0,0,0,3.128,28.5,1.843,1.843,0,0,0,5,26.626.591.591,0,0,1,5.63,26a.591.591,0,0,1,.626.626A3.1,3.1,0,0,1,3.128,29.754Z" transform="translate(0 -26)"/>
    </g>
    <g id="Group_29" data-name="Group 29" transform="translate(0 6.256)">
      <path id="Path_41" data-name="Path 41" class="cls-2" d="M1.251,20.635H0V11.877A1.843,1.843,0,0,1,1.877,10H5.943v1.251H1.877a.591.591,0,0,0-.626.626Z" transform="translate(0 -10)"/>
    </g>
    <g id="Group_30" data-name="Group 30" transform="translate(7.507 8.133)">
      <path id="Path_42" data-name="Path 42" class="cls-2" d="M21.384,14.251H12.626a.626.626,0,0,1,0-1.251h8.758a.626.626,0,1,1,0,1.251Z" transform="translate(-12 -13)"/>
    </g>
    <g id="Group_31" data-name="Group 31" transform="translate(7.507 5.63)">
      <path id="Path_43" data-name="Path 43" class="cls-2" d="M17,10.251H12.626a.626.626,0,0,1,0-1.251H17a.626.626,0,0,1,0,1.251Z" transform="translate(-12 -9)"/>
    </g>
    <g id="Group_32" data-name="Group 32" transform="translate(7.507 10.635)">
      <path id="Path_44" data-name="Path 44" class="cls-2" d="M21.384,18.251H12.626a.626.626,0,1,1,0-1.251h8.758a.626.626,0,1,1,0,1.251Z" transform="translate(-12 -17)"/>
    </g>
    <g id="Group_33" data-name="Group 33" transform="translate(7.507 13.138)">
      <path id="Path_45" data-name="Path 45" class="cls-2" d="M21.384,22.251H12.626a.626.626,0,0,1,0-1.251h8.758a.626.626,0,1,1,0,1.251Z" transform="translate(-12 -21)"/>
    </g>
  </g>
</svg>
