<svg xmlns="http://www.w3.org/2000/svg" viewBox="1408.809 414.031 24.902 24.687">
  <defs>
    <style>
      .cls-1 {
        opacity: 0.6;
      }

      .cls-2 {
        fill: #fff;
      }
    </style>
  </defs>
  <g id="Group_111" data-name="Group 111" class="cls-1" transform="translate(1408.809 414.031)">
    <g id="Group_19" data-name="Group 19" transform="translate(10.546 5.634)">
      <g id="Group_18" data-name="Group 18">
        <g id="Group_17" data-name="Group 17">
          <path id="Path_32" data-name="Path 32" class="cls-2" d="M15.7,20.163a.664.664,0,0,1-.7-.7V8.7a.7.7,0,0,1,1.406,0V19.39A.77.77,0,0,1,15.7,20.163Z" transform="translate(-15 -8)"/>
        </g>
      </g>
    </g>
    <g id="Group_20" data-name="Group 20" transform="translate(10.476 3.981)">
      <path id="Path_33" data-name="Path 33" class="cls-2" d="M18.556,15.668a7.658,7.658,0,0,1-3.234-.633.773.773,0,0,1-.422-.7,9.361,9.361,0,0,1,5.2-7.312,13.163,13.163,0,0,1,8.718-1.055.579.579,0,0,1,.492.7,9.461,9.461,0,0,1-5.132,7.312A10.517,10.517,0,0,1,18.556,15.668Zm-2.109-1.758c1.055.352,3.726.773,7.1-1.125a8.4,8.4,0,0,0,4.359-5.554,11.273,11.273,0,0,0-7.1,1.055h0A8.116,8.116,0,0,0,16.447,13.911Zm4.008-6.257Z" transform="translate(-14.9 -5.649)"/>
    </g>
    <g id="Group_21" data-name="Group 21" transform="translate(10.568 8.468)">
      <path id="Path_34" data-name="Path 34" class="cls-2" d="M15.712,17a.626.626,0,0,1-.562-.352.692.692,0,0,1,.211-.984l5.484-3.515a.712.712,0,1,1,.773,1.2l-5.484,3.515C15.923,16.931,15.853,17,15.712,17Z" transform="translate(-15.031 -12.031)"/>
    </g>
    <g id="Group_22" data-name="Group 22" transform="translate(0 0)">
      <path id="Path_35" data-name="Path 35" class="cls-2" d="M8.859,8.363a8.9,8.9,0,0,1-4.64-1.336A7.79,7.79,0,0,1,0,.98a.7.7,0,0,1,.492-.7,10.422,10.422,0,0,1,7.171.844h0a7.72,7.72,0,0,1,4.218,6.046.773.773,0,0,1-.422.7A6.283,6.283,0,0,1,8.859,8.363ZM1.476,1.543A7.131,7.131,0,0,0,4.922,5.832a6.9,6.9,0,0,0,5.484.914A6.632,6.632,0,0,0,6.96,2.387,8.306,8.306,0,0,0,1.476,1.543Z" transform="translate(0 0.013)"/>
    </g>
    <g id="Group_23" data-name="Group 23" transform="translate(6.068 3.687)">
      <path id="Path_36" data-name="Path 36" class="cls-2" d="M13.812,9.428a.537.537,0,0,1-.352-.141l-4.5-2.812a.615.615,0,0,1-.211-.914.692.692,0,0,1,.984-.211l4.429,2.812a.692.692,0,0,1,.211.984A.639.639,0,0,1,13.812,9.428Z" transform="translate(-8.631 -5.231)"/>
    </g>
    <g id="Group_24" data-name="Group 24" transform="translate(4.922 16.531)">
      <path id="Path_37" data-name="Path 37" class="cls-2" d="M20.288,31.656a.664.664,0,0,1-.7-.7v-1.9l-2.812-4.008-4.64-.211-1.687,2.32c0,.07-.07.07-.141.141L8.476,28.843,8.406,30.6A.7.7,0,0,1,7,30.6l.07-2.039a.531.531,0,0,1,.281-.492L9.32,26.383l1.828-2.6a.685.685,0,0,1,.633-.281l5.343.281a.868.868,0,0,1,.562.281l3.164,4.429a1,1,0,0,1,.141.422v2.109A.7.7,0,0,1,20.288,31.656Z" transform="translate(-7 -23.5)"/>
    </g>
  </g>
</svg>
