<svg xmlns="http://www.w3.org/2000/svg" viewBox="1406.841 366.585 27.788 19.338">
  <defs>
    <style>
      .cls-1 {
        opacity: 0.6;
      }

      .cls-2 {
        fill: #fff;
      }
    </style>
  </defs>
  <g id="Group_678" data-name="Group 678" class="cls-1" transform="translate(1406.866 366.585)">
    <path id="Path_428" data-name="Path 428" class="cls-2" d="M21.851,16.95,21.128,12.7a.427.427,0,0,0-.452-.452l-3.343-1.717A4.092,4.092,0,0,0,18.6,7.642V7.1H17.423v.542a2.739,2.739,0,0,1-2.8,2.711,2.8,2.8,0,0,1-2.8-2.711V7.1H10.646v.542a3.9,3.9,0,0,0,1.265,2.892L8.477,12.251h0a.089.089,0,0,0-.09.09l-.09.09a.089.089,0,0,1-.09.09.089.089,0,0,1-.09.09h0L7.393,16.95a2.314,2.314,0,0,0,.542,2.169,2.326,2.326,0,0,0,1.988.9h9.4a2.589,2.589,0,0,0,1.988-.9A2.921,2.921,0,0,0,21.851,16.95ZM20.405,18.4a1.5,1.5,0,0,1-1.084.452h-9.4A1.5,1.5,0,0,1,8.839,18.4a1.3,1.3,0,0,1-.271-1.175l.723-3.976,3.8-1.9a3.893,3.893,0,0,0,3.072.09l3.8,1.988.723,3.976A1.133,1.133,0,0,1,20.405,18.4Z" transform="translate(-0.708 -0.684)"/>
    <path id="Path_429" data-name="Path 429" class="cls-2" d="M8.733,5.241H20.66a.633.633,0,1,0,0-1.265H18.672a3.976,3.976,0,1,0-7.952,0v.09H8.733A.618.618,0,0,0,8.1,4.7.6.6,0,0,0,8.733,5.241ZM11.9,3.976a2.739,2.739,0,0,1,2.8-2.711,2.8,2.8,0,0,1,2.8,2.711v.09H11.986v-.09Z" transform="translate(-0.783)"/>
    <g id="Group_672" data-name="Group 672" transform="translate(19.335 6.325)">
      <path id="Path_430" data-name="Path 430" class="cls-2" d="M29.8,15.313,29.171,11.7a.389.389,0,0,0-.361-.361l-2.8-1.446a3.413,3.413,0,0,0,1.084-2.44V7H26.1v.452A2.392,2.392,0,0,1,23.749,9.8a2.358,2.358,0,0,1-1.988-1.084A5.845,5.845,0,0,1,21.4,9.892l1.446.723c.09,0,.181.09.271.181.181,0,.361.09.633.09a3.626,3.626,0,0,0,1.355-.271l3.253,1.627.633,3.343a1.02,1.02,0,0,1-.271.994,1.112,1.112,0,0,1-.9.452H25.2v.994h2.621a2.1,2.1,0,0,0,1.717-.813A4.21,4.21,0,0,0,29.8,15.313Z" transform="translate(-21.4 -7)"/>
    </g>
    <path id="Path_431" data-name="Path 431" class="cls-2" d="M28.71,4.334H26.993v-.09A3.4,3.4,0,0,0,23.649.9a3.281,3.281,0,0,0-2.349.994c.09.181.09.271.181.452h.813a2.22,2.22,0,0,1,1.355-.452A2.392,2.392,0,0,1,26,4.243v.09H24.282V4.7a1.34,1.34,0,0,1-.09.633h4.428a.583.583,0,0,0,.542-.542C29.252,4.6,28.981,4.334,28.71,4.334Z" transform="translate(-2.055 -0.087)"/>
    <g id="Group_674" data-name="Group 674" transform="translate(-0.025 0.813)">
      <g id="Group_673" data-name="Group 673" transform="translate(0 5.512)">
        <path id="Path_432" data-name="Path 432" class="cls-2" d="M0,15.313.63,11.7a.389.389,0,0,1,.361-.361l2.8-1.446A3.941,3.941,0,0,1,2.8,7.452V7h.994v.452A2.392,2.392,0,0,0,6.142,9.8,2.358,2.358,0,0,0,8.13,8.717a5.845,5.845,0,0,0,.361,1.175l-1.446.723c-.09,0-.181.09-.271.181-.181,0-.361.09-.633.09a3.626,3.626,0,0,1-1.355-.271L1.534,12.241.9,15.584a1.02,1.02,0,0,0,.271.994,1.359,1.359,0,0,0,.994.361H4.787v.994H2.166a2.1,2.1,0,0,1-1.717-.813A2.381,2.381,0,0,1,0,15.313Z" transform="translate(0.025 -7)"/>
      </g>
      <path id="Path_433" data-name="Path 433" class="cls-2" d="M1.142,4.334H2.859v-.09A3.4,3.4,0,0,1,6.2.9a3.281,3.281,0,0,1,2.349.994,1.527,1.527,0,0,1-.181.452H7.558A2.178,2.178,0,0,0,6.2,1.984,2.392,2.392,0,0,0,3.853,4.334v.09H5.57v.361a1.34,1.34,0,0,0,.09.633H1.142A.583.583,0,0,1,.6,4.876C.69,4.6.871,4.334,1.142,4.334Z" transform="translate(-0.035 -0.9)"/>
    </g>
  </g>
</svg>
