<svg xmlns="http://www.w3.org/2000/svg" viewBox="2757.7 9271.551 22.033 14.878">
  <defs>
    <style>
      .cls-1 {
        fill: #fff;
      }
    </style>
  </defs>
  <g id="Group_746" data-name="Group 746" transform="translate(2756.7 9271.551)">
    <path id="Path_438" data-name="Path 438" class="cls-1" d="M10.092,14.878a.627.627,0,0,1-.652-.652V8.634H6.183a.652.652,0,1,1,0-1.3H9.441v-2.5H5.652A.627.627,0,0,1,5,4.181a.627.627,0,0,1,.652-.652H9.441V.652A.627.627,0,0,1,10.092,0H24.21a.627.627,0,0,1,.652.652V14.226a.627.627,0,0,1-.652.652H10.092Zm13.466-1.3V1.3H19V4.941a1.137,1.137,0,0,1-1.086,1.14H15.739a1.147,1.147,0,0,1-1.14-1.14V1.3H10.744V13.575ZM15.739,4.941l2.172-.054V1.3H15.794V4.941Z" transform="translate(-1.828)"/>
    <path id="Path_439" data-name="Path 439" class="cls-1" d="M7.613,1.3H1.652A.627.627,0,0,1,1,.652.627.627,0,0,1,1.652,0h7.59" transform="translate(0)"/>
  </g>
</svg>
