<svg xmlns="http://www.w3.org/2000/svg" viewBox="2763 9317 19.701 17.477">
  <defs>
    <style>
      .cls-1 {
        opacity: 0.6;
      }

      .cls-2 {
        fill: #fff;
      }
    </style>
  </defs>
  <g id="Group_773" data-name="Group 773" class="cls-1" transform="translate(2763 9317)">
    <g id="Group_768" data-name="Group 768" transform="translate(0 7.308)">
      <g id="Group_766" data-name="Group 766">
        <path id="Path_458" data-name="Path 458" class="cls-2" d="M13.155,16.584a.6.6,0,0,0-.636-.636H1.271V12.771h7.88a.636.636,0,0,0,0-1.271H.636A.6.6,0,0,0,0,12.136v4.449a.6.6,0,0,0,.636.636H12.52A.637.637,0,0,0,13.155,16.584Z" transform="translate(0 -11.5)"/>
      </g>
      <g id="Group_767" data-name="Group 767" transform="translate(7.944)">
        <path id="Path_459" data-name="Path 459" class="cls-2" d="M23.622,11.5H13.136a.636.636,0,0,0,0,1.271h9.851v3.178H15.741a.6.6,0,0,0-.636.636.637.637,0,0,0,.636.636h7.88a.6.6,0,0,0,.636-.636V12.136A.6.6,0,0,0,23.622,11.5Z" transform="translate(-12.5 -11.5)"/>
      </g>
    </g>
    <g id="Group_769" data-name="Group 769" transform="translate(0 11.757)">
      <path id="Path_460" data-name="Path 460" class="cls-2" d="M19.066,18.5h-7.88a.6.6,0,0,0-.636.636.637.637,0,0,0,.636.636H18.43v3.178H1.271V19.771H12.52a.637.637,0,0,0,.636-.636.6.6,0,0,0-.636-.636H.636A.6.6,0,0,0,0,19.136v4.449a.6.6,0,0,0,.636.636h18.43a.6.6,0,0,0,.636-.636V19.136A.6.6,0,0,0,19.066,18.5Z" transform="translate(0 -18.5)"/>
    </g>
    <g id="Group_770" data-name="Group 770" transform="translate(8.135 3.495)">
      <path id="Path_461" data-name="Path 461" class="cls-2" d="M21.824,9.758V9.631a3.11,3.11,0,0,0-.763-2.351,1.285,1.285,0,0,0-1.144-.445,5.488,5.488,0,0,0-.953.064,5.815,5.815,0,0,1-1.08.064,7.787,7.787,0,0,1-1.207-.127,6.337,6.337,0,0,0-1.017-.127.984.984,0,0,0-.508.127,3.131,3.131,0,0,0-1.144,2.8v.127H12.8V9.631a4.3,4.3,0,0,1,1.652-3.75A2.017,2.017,0,0,1,15.723,5.5a7.787,7.787,0,0,1,1.207.127,3.16,3.16,0,0,0,1.017.191c.254,0,.572-.064.89-.064a5.815,5.815,0,0,1,1.08-.064,2.593,2.593,0,0,1,2.1.89A4.021,4.021,0,0,1,23.1,9.631v.127Z" transform="translate(-12.8 -5.5)"/>
      <path id="Path_462" data-name="Path 462" class="cls-2" d="M23.014,9.681h-.953a3.059,3.059,0,0,0-.826-2.415c-.445-.572-1.144-.572-2.161-.445a5.467,5.467,0,0,1-1.017.064,7.787,7.787,0,0,1-1.207-.127c-.636-.127-1.271-.254-1.589,0a3.134,3.134,0,0,0-1.207,2.86H13.1a3.961,3.961,0,0,1,1.589-3.622A2.775,2.775,0,0,1,17.04,5.8a6.337,6.337,0,0,0,1.017.127c.318,0,.572-.064.953-.064,1.017-.127,2.224-.254,3.051.763A4.387,4.387,0,0,1,23.014,9.681Z" transform="translate(-12.909 -5.55)"/>
    </g>
    <g id="Group_771" data-name="Group 771" transform="translate(12.686 1.017)">
      <path id="Path_463" data-name="Path 463" class="cls-2" d="M20.558,5.6a.57.57,0,0,1-.572-.572c0-.254-.254-2.415.89-3.3a.9.9,0,0,1,.381-.127.426.426,0,0,1,.445.254.536.536,0,0,1,.127.445.429.429,0,0,1-.254.381c-.445.381-.508,1.652-.445,2.224a.63.63,0,0,1-.508.7Z" transform="translate(-19.962 -1.6)"/>
      <path id="Path_464" data-name="Path 464" class="cls-2" d="M20.63,5.556a.434.434,0,0,1-.445-.445c0-.254-.254-2.351.826-3.178a.5.5,0,1,1,.636.763c-.572.445-.508,1.843-.445,2.351a.782.782,0,0,1-.572.508Z" transform="translate(-20.034 -1.68)"/>
    </g>
    <g id="Group_772" data-name="Group 772" transform="translate(12.978)">
      <path id="Path_465" data-name="Path 465" class="cls-2" d="M22.442,3.241a4,4,0,0,1-1.716-.508.534.534,0,0,1-.254-.7A3.131,3.131,0,0,1,23.458,0a4.838,4.838,0,0,1,1.335.191.847.847,0,0,1,.381.318.543.543,0,0,1,0,.445,3.438,3.438,0,0,1-1.843,2.1A2.03,2.03,0,0,1,22.442,3.241ZM21.87,1.97a1.856,1.856,0,0,0,.572.127h0a.942.942,0,0,0,.445-.064,1.615,1.615,0,0,0,.826-.763h-.254A1.734,1.734,0,0,0,21.87,1.97Z" transform="translate(-20.422)"/>
      <path id="Path_466" data-name="Path 466" class="cls-2" d="M22.514,3.178a3.534,3.534,0,0,1-1.652-.508.436.436,0,0,1-.191-.572c.318-.953,1.589-2.479,4.194-1.716.127.064.254.127.254.254a.405.405,0,0,1,0,.381A3.433,3.433,0,0,1,23.34,3.051,3.22,3.22,0,0,1,22.514,3.178ZM21.751,2.1a1.774,1.774,0,0,0,1.271.064,2.135,2.135,0,0,0,1.017-.953A2.088,2.088,0,0,0,21.751,2.1Z" transform="translate(-20.494 -0.064)"/>
    </g>
    <path id="Path_467" data-name="Path 467" class="cls-2" d="M10.6,6.843A4.455,4.455,0,0,0,6.976,5,4.557,4.557,0,0,0,2.4,9.576V9.7H3.607V9.576A3.391,3.391,0,0,1,6.976,6.207,3.349,3.349,0,0,1,10.28,9Z" transform="translate(-0.875 -1.822)"/>
  </g>
</svg>
