<svg xmlns="http://www.w3.org/2000/svg" viewBox="2765 10704 19.666 20">
  <defs>
    <style>
      .cls-1 {
        fill: #fff;
      }
    </style>
  </defs>
  <g id="Group_1167" data-name="Group 1167" transform="translate(2765 10704)">
    <g id="Group_1166" data-name="Group 1166" transform="translate(0)">
      <path id="Path_519" data-name="Path 519" class="cls-1" d="M17.095,18.59h0a.123.123,0,0,1-.123.123H5.239a.123.123,0,0,1-.123-.123V1.41a.123.123,0,0,1,.123-.123H16.972a.123.123,0,0,1,.123.123v1.2l1.286-1.241A1.411,1.411,0,0,0,16.972,0H5.239a1.411,1.411,0,0,0-1.41,1.41V18.59A1.411,1.411,0,0,0,5.239,20H16.972a1.411,1.411,0,0,0,1.41-1.41V12.542l-1.287,1.287Z" transform="translate(-3.829)"/>
      <path id="Path_520" data-name="Path 520" class="cls-1" d="M55.319,331.418a.643.643,0,0,0,.643.643h2.25a1.918,1.918,0,0,1-.276-1.287H55.962A.643.643,0,0,0,55.319,331.418Z" transform="translate(-53.071 -316.331)"/>
      <path id="Path_521" data-name="Path 521" class="cls-1" d="M58.63,256.828H55.962a.643.643,0,0,0,0,1.287h2.388Z" transform="translate(-53.071 -245.613)"/>
      <path id="Path_522" data-name="Path 522" class="cls-1" d="M60.957,182.882h-5a.643.643,0,0,0,0,1.287h3.708Z" transform="translate(-53.071 -174.896)"/>
      <path id="Path_523" data-name="Path 523" class="cls-1" d="M64.186,108.936H55.962a.643.643,0,1,0,0,1.287H62.9Z" transform="translate(-53.071 -104.179)"/>
      <path id="Path_524" data-name="Path 524" class="cls-1" d="M157.078,42.454a2.677,2.677,0,0,0-3.819-.029l-7.968,7.968a.648.648,0,0,0-.174.319l-.8,3.679a.643.643,0,0,0,.765.765l3.679-.8a.655.655,0,0,0,.319-.174l7.968-7.968A2.678,2.678,0,0,0,157.078,42.454ZM145.789,53.687l.336-1.549,1.214,1.214Zm10.352-8.38-7.513,7.513-1.972-1.972,7.513-7.513a1.394,1.394,0,1,1,1.972,1.972Z" transform="translate(-138.171 -39.82)"/>
    </g>
  </g>
</svg>
