<svg xmlns="http://www.w3.org/2000/svg" viewBox="3702.03 135.211 16.425 16.425">
  <defs>
    <style>
      .cls-1 {
        fill: #fff;
      }
    </style>
  </defs>
  <path id="Path_784" data-name="Path 784" class="cls-1" d="M11.322,10.358,6.837,5.845,11.4,1.258a.718.718,0,0,0,0-1.036.708.708,0,0,0-1.029,0L5.808,4.735,1.25.222a.708.708,0,0,0-1.029,0,.718.718,0,0,0,0,1.036L4.779,5.845.221,10.358a.718.718,0,0,0,0,1.036.792.792,0,0,0,.515.222.665.665,0,0,0,.515-.222L5.808,6.807l4.558,4.587a.708.708,0,0,0,1.029,0,.8.8,0,0,0,.221-.518A1.858,1.858,0,0,0,11.322,10.358Z" transform="matrix(0.719, 0.695, -0.695, 0.719, 3710.099, 135.211)"/>
</svg>
